<svg width="1204" height="334" viewBox="0 0 1204 334" fill="none" xmlns="http://www.w3.org/2000/svg">
<path d="M89.2667 89.6667L89.6667 124.333L127.667 124.733L165.667 125L162.067 121.933C159 119.267 135.4 97.6667 131.133 93.6667C130.333 92.8667 123.133 86.3333 115 79.1333C107 71.8 97.8 63.4 94.6 60.4667L89 55L89.2667 89.6667Z" fill="white"/>
<path d="M469.133 116.067C457.4 119.8 448.6 134.467 446.867 153L445.933 162.333H438.2H430.333V168.333V174.333H438.333H446.333V225.667V277H453.667H461V225.667V174.333H477H493V168.333V162.333H476.867H460.6L461.533 153.267C462.6 142.333 466.733 133.533 472.2 130.2C477.267 127.133 488.467 126.867 495.133 129.667L499.8 131.533L501.933 126.733C503.8 122.2 503.8 121.667 501.533 120.067C494.733 115 478.467 113.133 469.133 116.067Z" fill="white"/>
<path d="M225.667 121C199.8 126.2 185.933 141.8 186.067 165.267C186.2 187 195.8 194.6 236.733 205.134C273.267 214.467 282.333 220.867 282.333 237C282.333 247.4 276.2 255.934 265.667 260.467C258.6 263.4 236.867 264.467 226.067 262.334C215.8 260.334 203 254.6 194.2 248.2C187.133 243 187 243 182.467 250.6L179.533 255.4L189.667 262.2C204.2 271.934 217.4 275.934 237.667 276.734C256.067 277.4 264.867 275.934 276.467 270.467C291.8 263.267 299.267 249.667 298.067 231.534C297 216.734 289.267 207 273.667 200.334C270.733 199.134 257.8 195.534 245 192.2C218.467 185.4 208.6 181.267 204.867 175.267C199.267 165.934 200.467 152.734 207.667 144.467C221.4 128.867 257.933 129.667 279.4 146.067C281.8 147.934 283.933 149.134 284.2 148.867C284.333 148.6 285.933 145.934 287.667 143.134L290.867 137.934L286.467 134.334C272.733 122.734 246.067 117 225.667 121Z" fill="white"/>
<path d="M639.667 199V277.133L652.067 276.733L664.333 276.333L665 222.2L665.667 168.067L708.333 222.2L751.133 276.333H761.667H772.333L772.733 208.067L773 139.933L762.733 130.467C757 125.267 751.267 121 750.067 121C747.8 121 747.667 124.867 747.4 176.6L747 232.2L703.667 176.6L660.333 121.133L650.067 121H639.667V199Z" fill="white"/>
<path d="M938.333 143.667V162.333H931H923.667V171.667V181H931H938.333V217C938.333 258.067 939.267 264.467 945.667 270.867C953.8 279.133 971.667 280.6 988.067 274.333C996.6 271.133 996.733 270.867 993.533 259.667L991.4 252.2L983.933 254.733C977.533 256.867 975.533 257 971.267 255.667C963 253.267 962.333 250.333 962.333 213V181H975H987.667V171.667V162.333H975H962.333V143.667V125H950.333H938.333V143.667Z" fill="white"/>
<path d="M348.067 163C340.733 165 323.133 173.4 321.8 175.534C320.867 177 325 186.6 326.2 186.067C326.6 185.8 331.267 183.4 336.333 180.734C348.867 174.334 359.933 172.2 369.933 174.2C386.067 177.4 394.333 187.934 394.333 205.267C394.333 210.334 394.2 214.334 394.067 214.334C393.8 214.334 390.733 213.4 387.133 212.334C368.6 206.734 343 209 328.867 217.4C305.133 231.667 309.4 265.534 336.2 275.534C353.667 282.067 377.267 276.734 391.4 263.267L397 257.8V262.6C397 272.334 402.467 277.8 411.133 276.734C414.6 276.334 415 275.667 415.4 271.267C415.8 267.267 415.133 265.667 412.733 263.8C409.667 261.267 409.667 260.867 409 226.067L408.333 190.734L404.333 183C395.133 165 371.667 156.734 348.067 163ZM385 222.067L393.667 224.334L394.067 235C394.467 245.134 394.2 246.067 390.467 251.4C385.267 258.467 375 264.334 364.2 266.334C344.733 270.067 329.267 260.6 327.933 244.334C327.533 238.734 327.933 236.2 330.067 232.734C332.867 228.334 340.6 223 347.4 221C353.8 219 375.8 219.667 385 222.067Z" fill="white"/>
<path d="M542.333 163.534C528.333 167.934 519.133 174.867 511.667 186.6C498.333 207.134 499.267 234.734 514.067 256.2C519.4 264.067 531.8 272.6 542.6 275.8C554.333 279.4 569.933 278.867 581.267 274.467C593.267 269.8 611.533 251.534 606.067 249.667C597.133 246.734 594.467 246.6 593.667 249C592.467 252.734 582.733 261 575.8 264.067C566.6 268.2 551.933 267.934 543 263.4C530.6 257 521 244.334 518.467 231L517.4 225H566.733H616.067L615.267 215.134C613.667 197 605.533 182.067 591.667 171.534C578.6 161.667 558.2 158.334 542.333 163.534ZM576.867 176.2C588.733 182.467 598.867 196.2 600.6 208.334L601.4 214.334H559H516.733L517.667 208.6C519.533 197.534 528.867 183.267 537.533 178.6C546.333 173.8 549.8 173 561 173.4C568.6 173.667 573.8 174.6 576.867 176.2Z" fill="white"/>
<path d="M838.2 163C812.2 170.067 795.667 192.067 795.667 219.533C795.667 255.267 822.067 280.2 857.933 278.067C877.933 276.867 892.333 269 902.2 254.2C914.867 235.267 916.333 211.267 906.2 191.4C902.333 183.667 891.533 172.733 883.933 168.6C870.733 161.4 852.067 159.133 838.2 163ZM863.133 183C871.933 185.533 880.067 192.733 884.467 201.8C889.133 211.267 889.533 226.467 885.4 235.8C875.4 258.2 850.733 265 833.667 250.067C814.467 233.133 815.933 201.667 836.467 187.267C845.267 181.133 852.867 179.933 863.133 183Z" fill="white"/>
<path d="M1038.87 163.534C1029.67 166.067 1019 170.734 1013.8 174.6C1011.4 176.467 1011.53 176.734 1015 183.8C1017 187.8 1018.73 191.134 1019 191.4C1019.13 191.534 1024.2 189.134 1030.2 186.067C1039.67 181.4 1042.73 180.467 1051.67 179.934C1072.6 178.734 1083.67 187.534 1083.67 205.134C1083.67 210.467 1083.27 211.8 1081.8 211.267C1070.33 206.867 1041 206.734 1030.33 211C1015.13 217.134 1006.73 226.867 1005.4 240.067C1002.6 267.4 1030.6 285.134 1061.27 275.667C1069.53 273.134 1085 263.534 1085 260.867C1085 260.2 1085.67 259.667 1086.33 259.667C1087.13 259.667 1087.67 261.134 1087.67 263C1087.67 273.134 1094.87 277.8 1109.4 277.267L1114.33 277V267.267C1114.33 258.6 1114.07 257.534 1111.4 256.334C1108.33 255 1108.33 254.6 1107.67 224.334L1107 193.667L1102.6 184.734C1095 169.134 1082.73 162.334 1061 161.534C1051.4 161.134 1046.07 161.667 1038.87 163.534ZM1079.4 225C1083.53 226.467 1083.67 226.867 1083.67 233.8C1083.67 237.8 1082.87 242.734 1081.8 244.734C1075 257.8 1052.73 264.867 1039.67 258.067C1023.13 249.534 1024.2 230.734 1041.8 224.2C1047.93 221.934 1072.47 222.467 1079.4 225Z" fill="white"/>
</svg>
